<svg xmlns="http://www.w3.org/2000/svg" xmlns:xlink="http://www.w3.org/1999/xlink" width="280" zoomAndPan="magnify" viewBox="0 0 210 209.999996" height="280" preserveAspectRatio="xMidYMid meet" version="1.0"><defs><clipPath id="9ffef41bf5"><path d="M 6.492188 0 L 203.742188 0 L 203.742188 210 L 6.492188 210 Z M 6.492188 0 " clip-rule="nonzero"/></clipPath><clipPath id="96bdfbb379"><path d="M 103 0 L 203.742188 0 L 203.742188 210 L 103 210 Z M 103 0 " clip-rule="nonzero"/></clipPath></defs><g clip-path="url(#9ffef41bf5)"><path fill="#e23237" d="M 6.492188 35.195312 L 103.757812 0.621094 L 203.585938 34.660156 L 187.453125 163.140625 L 103.757812 209.378906 L 21.421875 163.738281 Z M 6.492188 35.195312 " fill-opacity="1" fill-rule="nonzero"/></g><g clip-path="url(#96bdfbb379)"><path fill="#b52e31" d="M 203.585938 34.660156 L 103.757812 0.621094 L 103.757812 209.378906 L 187.453125 163.140625 Z M 203.585938 34.660156 " fill-opacity="1" fill-rule="nonzero"/></g><path fill="#ffffff" d="M 103.90625 25.019531 L 43.296875 159.667969 L 65.914062 159.210938 L 78.128906 128.785156 L 132.339844 128.785156 L 145.609375 159.445312 L 167.179688 159.902344 Z M 104.058594 68.246094 L 124.566406 111.019531 L 86.175781 111.019531 L 104.117188 68.246094 Z M 104.058594 68.246094 " fill-opacity="1" fill-rule="nonzero"/></svg>