<svg xmlns="http://www.w3.org/2000/svg" xmlns:xlink="http://www.w3.org/1999/xlink" width="280" zoomAndPan="magnify" viewBox="0 0 210 209.999996" height="280" preserveAspectRatio="xMidYMid meet" version="1.0"><defs><clipPath id="07f3b4efd1"><path d="M 2 2 L 208.800781 2 L 208.800781 210 L 2 210 Z M 2 2 " clip-rule="nonzero"/></clipPath></defs><rect x="-21" width="252" fill="#ffffff" y="-21" height="251.999995" fill-opacity="1"/><rect x="-21" width="252" fill="#ffffff" y="-21" height="251.999995" fill-opacity="1"/><g clip-path="url(#07f3b4efd1)"><path fill="#000000" d="M 150.007812 209.984375 C 149.324219 209.984375 148.648438 209.917969 147.980469 209.785156 C 147.3125 209.652344 146.660156 209.453125 146.03125 209.195312 C 145.402344 208.933594 144.804688 208.613281 144.234375 208.234375 C 143.667969 207.855469 143.144531 207.421875 142.660156 206.941406 C 142.179688 206.457031 141.75 205.933594 141.371094 205.363281 C 140.992188 204.796875 140.671875 204.199219 140.410156 203.566406 C 140.148438 202.9375 139.953125 202.289062 139.820312 201.617188 C 139.6875 200.949219 139.621094 200.273438 139.621094 199.589844 L 139.621094 172.5625 C 139.78125 171.011719 139.777344 169.457031 139.613281 167.902344 C 139.449219 166.347656 139.125 164.828125 138.644531 163.339844 C 138.160156 161.855469 137.527344 160.4375 136.746094 159.082031 C 135.96875 157.730469 135.054688 156.472656 134.011719 155.308594 C 133.363281 154.609375 132.824219 153.832031 132.390625 152.980469 C 131.957031 152.128906 131.648438 151.238281 131.460938 150.300781 C 131.273438 149.363281 131.214844 148.421875 131.289062 147.46875 C 131.363281 146.519531 131.5625 145.59375 131.890625 144.695312 C 132.21875 143.800781 132.660156 142.964844 133.214844 142.191406 C 133.773438 141.414062 134.425781 140.730469 135.171875 140.136719 C 135.917969 139.539062 136.730469 139.058594 137.609375 138.6875 C 138.488281 138.316406 139.398438 138.070312 140.347656 137.949219 C 165.691406 134.9375 189.0625 126.828125 189.0625 82.859375 C 189.066406 78.753906 188.476562 74.734375 187.292969 70.804688 C 186.105469 66.875 184.378906 63.203125 182.105469 59.785156 C 181.066406 58.226562 180.1875 56.582031 179.472656 54.851562 C 178.757812 53.121094 178.214844 51.335938 177.851562 49.5 C 177.484375 47.664062 177.304688 45.808594 177.300781 43.9375 C 177.300781 42.0625 177.480469 40.207031 177.84375 38.371094 C 178.789062 33.484375 178.789062 28.601562 177.84375 23.714844 C 170.019531 26.363281 162.785156 30.140625 156.136719 35.042969 C 154.871094 35.945312 153.472656 36.53125 151.945312 36.800781 C 150.417969 37.074219 148.90625 37.007812 147.410156 36.605469 C 142.746094 35.285156 138.011719 34.292969 133.210938 33.628906 C 128.410156 32.960938 123.585938 32.628906 118.742188 32.628906 C 113.894531 32.628906 109.070312 32.960938 104.269531 33.628906 C 99.46875 34.292969 94.734375 35.285156 90.070312 36.605469 C 88.574219 37.007812 87.0625 37.074219 85.535156 36.800781 C 84.007812 36.53125 82.609375 35.945312 81.34375 35.042969 C 74.652344 30.078125 67.347656 26.304688 59.429688 23.714844 C 58.429688 28.601562 58.429688 33.484375 59.429688 38.371094 C 59.765625 40.230469 59.921875 42.109375 59.898438 44 C 59.875 45.890625 59.671875 47.761719 59.289062 49.613281 C 58.90625 51.46875 58.351562 53.265625 57.625 55.011719 C 56.894531 56.757812 56.007812 58.417969 54.960938 59.992188 C 52.699219 63.433594 50.972656 67.128906 49.789062 71.074219 C 48.605469 75.019531 48.007812 79.050781 48 83.171875 C 48 123.605469 67.53125 134.417969 96.824219 138.160156 C 97.78125 138.277344 98.703125 138.527344 99.59375 138.902344 C 100.484375 139.277344 101.304688 139.769531 102.058594 140.375 C 102.808594 140.984375 103.464844 141.679688 104.023438 142.46875 C 104.578125 143.257812 105.019531 144.109375 105.339844 145.019531 C 105.640625 145.902344 105.820312 146.8125 105.878906 147.746094 C 105.9375 148.675781 105.867188 149.601562 105.675781 150.515625 C 105.484375 151.429688 105.175781 152.304688 104.746094 153.132812 C 104.320312 153.964844 103.792969 154.726562 103.160156 155.414062 C 102.148438 156.492188 101.261719 157.667969 100.492188 158.929688 C 99.726562 160.195312 99.097656 161.527344 98.605469 162.921875 C 98.113281 164.316406 97.769531 165.75 97.574219 167.214844 C 97.378906 168.683594 97.335938 170.152344 97.445312 171.628906 L 97.445312 199.589844 C 97.445312 200.273438 97.378906 200.949219 97.246094 201.617188 C 97.113281 202.289062 96.917969 202.9375 96.65625 203.566406 C 96.394531 204.199219 96.074219 204.796875 95.695312 205.363281 C 95.316406 205.933594 94.886719 206.457031 94.402344 206.941406 C 93.921875 207.421875 93.398438 207.855469 92.828125 208.234375 C 92.261719 208.613281 91.664062 208.933594 91.035156 209.195312 C 90.402344 209.453125 89.753906 209.652344 89.085938 209.785156 C 88.417969 209.917969 87.742188 209.984375 87.058594 209.984375 C 86.375 209.984375 85.699219 209.917969 85.03125 209.785156 C 84.363281 209.652344 83.714844 209.453125 83.082031 209.195312 C 82.453125 208.933594 81.855469 208.613281 81.289062 208.234375 C 80.71875 207.855469 80.195312 207.421875 79.714844 206.941406 C 79.230469 206.457031 78.800781 205.933594 78.421875 205.363281 C 78.042969 204.796875 77.722656 204.199219 77.460938 203.566406 C 77.199219 202.9375 77.003906 202.289062 76.871094 201.617188 C 76.738281 200.949219 76.671875 200.273438 76.671875 199.589844 L 76.671875 193.664062 C 74.128906 193.957031 71.578125 194.09375 69.019531 194.070312 C 66.460938 194.050781 63.914062 193.871094 61.375 193.535156 C 58.839844 193.199219 56.332031 192.707031 53.855469 192.0625 C 51.378906 191.417969 48.953125 190.625 46.574219 189.679688 C 44.195312 188.738281 41.882812 187.652344 39.640625 186.421875 C 37.394531 185.191406 35.234375 183.832031 33.15625 182.335938 C 31.078125 180.839844 29.101562 179.222656 27.222656 177.484375 C 25.34375 175.746094 23.578125 173.898438 21.929688 171.941406 C 18.492188 168.128906 14.476562 165.078125 9.878906 162.792969 C 9.21875 162.625 8.578125 162.390625 7.964844 162.09375 C 7.347656 161.796875 6.765625 161.441406 6.21875 161.03125 C 5.671875 160.621094 5.171875 160.160156 4.71875 159.652344 C 4.261719 159.140625 3.859375 158.59375 3.511719 158.003906 C 3.164062 157.414062 2.878906 156.796875 2.652344 156.152344 C 2.425781 155.507812 2.265625 154.84375 2.171875 154.167969 C 2.074219 153.492188 2.046875 152.8125 2.082031 152.128906 C 2.121094 151.445312 2.226562 150.773438 2.398438 150.113281 C 2.566406 149.449219 2.800781 148.808594 3.097656 148.195312 C 3.394531 147.578125 3.746094 146.996094 4.15625 146.449219 C 4.570312 145.902344 5.027344 145.402344 5.539062 144.945312 C 6.046875 144.492188 6.597656 144.089844 7.1875 143.742188 C 7.773438 143.394531 8.390625 143.109375 9.035156 142.882812 C 9.679688 142.65625 10.34375 142.496094 11.019531 142.398438 C 11.695312 142.304688 12.375 142.277344 13.058594 142.3125 C 13.738281 142.351562 14.410156 142.457031 15.074219 142.628906 C 19.070312 144.085938 22.824219 146.007812 26.339844 148.402344 C 29.855469 150.792969 33.027344 153.582031 35.847656 156.765625 C 46.234375 167.160156 56.625 176.304688 76.359375 172.566406 C 76.007812 166.921875 76.804688 161.449219 78.75 156.140625 C 57.351562 150.734375 26.8125 135.351562 26.8125 83.378906 C 26.796875 77.222656 27.675781 71.199219 29.445312 65.304688 C 31.214844 59.40625 33.796875 53.894531 37.199219 48.765625 C 37.828125 47.820312 38.261719 46.789062 38.496094 45.675781 C 38.730469 44.558594 38.746094 43.441406 38.550781 42.320312 C 37.5 36.710938 37.265625 31.066406 37.847656 25.390625 C 38.433594 19.710938 39.808594 14.234375 41.976562 8.953125 C 42.574219 7.53125 43.445312 6.296875 44.589844 5.261719 C 45.734375 4.226562 47.042969 3.480469 48.519531 3.03125 C 52.050781 1.988281 64.726562 -0.0898438 88.71875 15.503906 C 98.433594 13.164062 108.285156 11.996094 118.273438 11.996094 C 128.261719 11.996094 138.113281 13.164062 147.824219 15.503906 C 171.820312 -0.0898438 184.492188 1.886719 187.921875 3.03125 C 189.398438 3.480469 190.707031 4.226562 191.851562 5.261719 C 193 6.296875 193.867188 7.53125 194.464844 8.953125 C 196.636719 14.25 198.015625 19.746094 198.597656 25.441406 C 199.183594 31.136719 198.945312 36.796875 197.894531 42.425781 C 197.679688 43.449219 197.671875 44.476562 197.867188 45.503906 C 198.066406 46.53125 198.457031 47.480469 199.035156 48.351562 C 200.730469 50.90625 202.230469 53.578125 203.53125 56.355469 C 204.835938 59.136719 205.925781 61.996094 206.804688 64.9375 C 207.683594 67.878906 208.34375 70.867188 208.78125 73.90625 C 209.222656 76.945312 209.433594 79.996094 209.421875 83.066406 C 209.421875 135.769531 179.089844 151.046875 157.484375 155.828125 C 159.40625 161.460938 160.167969 167.25 159.769531 173.1875 L 159.769531 199.589844 C 159.773438 200.246094 159.710938 200.898438 159.589844 201.542969 C 159.46875 202.191406 159.285156 202.816406 159.042969 203.429688 C 158.800781 204.039062 158.507812 204.625 158.15625 205.179688 C 157.800781 205.734375 157.402344 206.25 156.953125 206.726562 C 156.503906 207.207031 156.011719 207.640625 155.480469 208.023438 C 154.949219 208.410156 154.386719 208.742188 153.789062 209.023438 C 153.195312 209.300781 152.582031 209.519531 151.945312 209.683594 C 151.308594 209.84375 150.664062 209.945312 150.007812 209.984375 Z M 150.007812 209.984375 " fill-opacity="1" fill-rule="nonzero"/></g></svg>