<svg xmlns="http://www.w3.org/2000/svg" xmlns:xlink="http://www.w3.org/1999/xlink" width="280" zoomAndPan="magnify" viewBox="0 0 210 209.999996" height="280" preserveAspectRatio="xMidYMid meet" version="1.0"><path fill="#ffffff" d="M 92.007812 12 C 47.484375 16.933594 11.203125 52.859375 5.832031 97.316406 C 5.484375 100.109375 5.257812 102.910156 5.148438 105.722656 C 5.042969 108.535156 5.054688 111.34375 5.191406 114.15625 C 5.324219 116.964844 5.578125 119.765625 5.953125 122.554688 C 6.324219 125.34375 6.816406 128.113281 7.429688 130.859375 C 8.039062 133.605469 8.769531 136.320312 9.613281 139.003906 C 10.457031 141.691406 11.414062 144.332031 12.484375 146.9375 C 13.554688 149.539062 14.734375 152.089844 16.023438 154.589844 C 17.316406 157.089844 18.710938 159.53125 20.207031 161.914062 C 21.707031 164.296875 23.304688 166.609375 25.003906 168.851562 C 26.699219 171.097656 28.488281 173.265625 30.375 175.355469 C 32.257812 177.449219 34.226562 179.453125 36.28125 181.375 C 38.335938 183.296875 40.46875 185.128906 42.683594 186.867188 C 44.894531 188.605469 47.175781 190.246094 49.53125 191.792969 C 51.882812 193.335938 54.296875 194.773438 56.773438 196.109375 C 59.25 197.445312 61.78125 198.675781 64.359375 199.792969 C 66.941406 200.914062 69.566406 201.921875 72.234375 202.816406 C 77.148438 203.601562 78.71875 200.554688 78.71875 197.90625 L 78.71875 181.308594 C 51.523438 187.21875 45.734375 168.160156 45.734375 168.160156 C 41.230469 156.769531 34.835938 153.722656 34.835938 153.722656 C 25.898438 147.636719 35.53125 147.835938 35.53125 147.835938 C 45.34375 148.53125 50.550781 157.949219 50.550781 157.949219 C 59.09375 172.871094 73.523438 168.453125 79.117188 166.097656 C 80 159.714844 82.59375 155.390625 85.300781 152.9375 C 63.472656 150.484375 40.625 142.039062 40.625 104.640625 C 40.625 93.742188 44.359375 85.007812 50.738281 78.035156 C 49.757812 75.582031 46.316406 65.371094 51.71875 52.117188 C 51.71875 52.117188 59.96875 49.460938 78.71875 62.132812 C 86.757812 59.96875 94.9375 58.886719 103.261719 58.886719 C 111.585938 58.886719 119.765625 59.96875 127.804688 62.132812 C 146.570312 49.460938 154.804688 52.117188 154.804688 52.117188 C 160.199219 65.371094 156.765625 75.582031 155.785156 78.035156 C 162.167969 84.984375 165.898438 93.742188 165.898438 104.640625 C 165.898438 142.136719 142.921875 150.386719 121.035156 152.839844 C 124.566406 155.886719 127.804688 161.878906 127.804688 171.003906 L 127.804688 197.90625 C 127.804688 200.554688 129.375 203.699219 134.386719 202.816406 C 135.808594 202.339844 137.222656 201.828125 138.621094 201.289062 C 140.019531 200.746094 141.40625 200.171875 142.78125 199.566406 C 144.15625 198.960938 145.511719 198.324219 146.859375 197.660156 C 148.203125 196.992188 149.53125 196.292969 150.84375 195.566406 C 152.15625 194.835938 153.449219 194.078125 154.726562 193.292969 C 156.007812 192.503906 157.265625 191.6875 158.503906 190.84375 C 159.746094 189.996094 160.964844 189.125 162.167969 188.222656 C 163.367188 187.320312 164.546875 186.394531 165.703125 185.4375 C 166.859375 184.484375 167.996094 183.5 169.109375 182.492188 C 170.222656 181.488281 171.3125 180.453125 172.375 179.398438 C 173.441406 178.339844 174.484375 177.257812 175.5 176.15625 C 176.515625 175.050781 177.503906 173.921875 178.46875 172.773438 C 179.433594 171.621094 180.371094 170.449219 181.28125 169.257812 C 182.191406 168.0625 183.074219 166.851562 183.929688 165.617188 C 184.785156 164.382812 185.613281 163.128906 186.410156 161.859375 C 187.207031 160.585938 187.976562 159.296875 188.714844 157.992188 C 189.453125 156.683594 190.160156 155.363281 190.839844 154.023438 C 191.515625 152.683594 192.164062 151.332031 192.777344 149.960938 C 193.394531 148.59375 193.980469 147.210938 194.53125 145.816406 C 195.085938 144.417969 195.605469 143.011719 196.09375 141.59375 C 196.582031 140.171875 197.035156 138.742188 197.457031 137.304688 C 197.882812 135.863281 198.269531 134.414062 198.628906 132.957031 C 198.984375 131.496094 199.304688 130.03125 199.59375 128.558594 C 199.882812 127.085938 200.140625 125.609375 200.359375 124.125 C 200.582031 122.640625 200.769531 121.148438 200.921875 119.65625 C 201.074219 118.164062 201.195312 116.667969 201.277344 115.167969 C 201.363281 113.671875 201.414062 112.171875 201.429688 110.671875 C 201.445312 109.167969 201.425781 107.667969 201.371094 106.167969 C 201.320312 104.667969 201.234375 103.171875 201.109375 101.675781 C 200.988281 100.179688 200.832031 98.6875 200.644531 97.199219 C 200.453125 95.707031 200.230469 94.226562 199.972656 92.746094 C 199.714844 91.269531 199.421875 89.796875 199.097656 88.332031 C 198.773438 86.867188 198.414062 85.410156 198.019531 83.960938 C 197.628906 82.511719 197.203125 81.070312 196.746094 79.640625 C 196.285156 78.214844 195.796875 76.792969 195.273438 75.386719 C 194.75 73.980469 194.195312 72.585938 193.609375 71.207031 C 193.019531 69.824219 192.402344 68.457031 191.753906 67.105469 C 191.105469 65.75 190.421875 64.414062 189.710938 63.089844 C 189 61.769531 188.261719 60.464844 187.492188 59.175781 C 186.71875 57.886719 185.917969 56.617188 185.089844 55.367188 C 184.261719 54.117188 183.40625 52.882812 182.519531 51.671875 C 181.632812 50.460938 180.722656 49.269531 179.78125 48.097656 C 178.84375 46.929688 177.875 45.78125 176.882812 44.65625 C 175.890625 43.527344 174.875 42.425781 173.832031 41.347656 C 172.789062 40.265625 171.71875 39.210938 170.628906 38.183594 C 169.539062 37.152344 168.421875 36.148438 167.285156 35.167969 C 166.148438 34.1875 164.988281 33.234375 163.808594 32.308594 C 162.625 31.382812 161.425781 30.484375 160.203125 29.613281 C 158.980469 28.742188 157.738281 27.898438 156.476562 27.085938 C 155.21875 26.269531 153.9375 25.484375 152.640625 24.730469 C 151.34375 23.972656 150.03125 23.246094 148.703125 22.550781 C 147.371094 21.855469 146.027344 21.191406 144.664062 20.558594 C 143.304688 19.925781 141.929688 19.320312 140.542969 18.75 C 139.15625 18.179688 137.753906 17.640625 136.339844 17.132812 C 134.929688 16.628906 133.503906 16.152344 132.070312 15.710938 C 130.636719 15.269531 129.191406 14.863281 127.738281 14.488281 C 126.285156 14.113281 124.824219 13.769531 123.355469 13.460938 C 121.886719 13.152344 120.410156 12.878906 118.929688 12.636719 C 117.449219 12.398438 115.960938 12.191406 114.472656 12.015625 C 112.980469 11.84375 111.484375 11.707031 109.988281 11.601562 C 108.492188 11.496094 106.992188 11.425781 105.492188 11.390625 C 103.992188 11.355469 102.492188 11.355469 100.988281 11.386719 C 99.488281 11.421875 97.992188 11.488281 96.492188 11.589844 C 94.996094 11.691406 93.5 11.828125 92.007812 12 Z M 92.007812 12 " fill-opacity="1" fill-rule="nonzero"/></svg>